<svg width="32" height="32" viewBox="0 0 32 32" fill="none" xmlns="http://www.w3.org/2000/svg">
  <path fill-rule="evenodd" clip-rule="evenodd" d="M14.525 1.63332C15.0302 2.0123 15.5867 2.48616 16.0345 2.87795C16.9288 3.66044 18.1233 4.78007 19.3207 6.12701C21.6742 8.77471 24.2083 12.4876 24.2083 16.3333C24.2083 21.9712 19.6379 26.5417 14 26.5417C8.36205 26.5417 3.79163 21.9712 3.79163 16.3333C3.79163 12.4876 6.3258 8.77471 8.67931 6.12701C8.88078 5.90035 9.18524 5.79417 9.48397 5.8464C9.78269 5.89862 10.0331 6.1018 10.1457 6.38336C10.4365 7.11041 10.6258 7.48357 10.859 7.75695C10.9738 7.89159 11.1138 8.01823 11.3151 8.15169C12.368 6.14594 12.7419 4.71886 13.1355 2.19835C13.1828 1.89488 13.3858 1.63847 13.6704 1.52277C13.9549 1.40707 14.2793 1.44904 14.525 1.63332ZM9.675 21.8249C9.21939 21.3694 9.21939 20.6306 9.675 20.175L16.675 13.175C17.1306 12.7195 17.8693 12.7195 18.3249 13.175C18.7805 13.6306 18.7805 14.3694 18.3249 14.8249L11.3249 21.8249C10.8693 22.2805 10.1306 22.2805 9.675 21.8249ZM10.5125 12.8333H10.5C9.85563 12.8333 9.33329 13.3556 9.33329 14C9.33329 14.6443 9.85563 15.1667 10.5 15.1667H10.5125C11.1568 15.1667 11.6792 14.6443 11.6792 14C11.6792 13.3556 11.1568 12.8333 10.5125 12.8333ZM17.4874 19.8333C16.8431 19.8333 16.3207 20.3556 16.3207 21C16.3207 21.6443 16.8431 22.1667 17.4874 22.1667H17.5C18.1443 22.1667 18.6666 21.6443 18.6666 21C18.6666 20.3556 18.1443 19.8333 17.5 19.8333H17.4874Z" fill="#2579F2"/>
</svg>
